HIERARCHY
ROOT Hips
{
	OFFSET 0.00000 0.00000 0.00000
	CHANNELS 6 Xposition Yposition Zposition Zrotation Yrotation Xrotation 
	JOINT LHipJoint
	{
		OFFSET 0 0 0
		CHANNELS 3 Zrotation Yrotation Xrotation
		JOINT LeftUpLeg
		{
			OFFSET 1.54859 -1.61379 0.86856
			CHANNELS 3 Zrotation Yrotation Xrotation
			JOINT LeftLeg
			{
				OFFSET 2.25087 -6.18423 0.00000
				CHANNELS 3 Zrotation Yrotation Xrotation
				JOINT LeftFoot
				{
					OFFSET 2.40328 -6.60297 0.00000
					CHANNELS 3 Zrotation Yrotation Xrotation
					JOINT LeftToeBase
					{
						OFFSET 0.17435 -0.47901 2.02453
						CHANNELS 3 Zrotation Yrotation Xrotation
						End Site
						{
							OFFSET 0.00000 -0.00000 1.04844
						}
					}
				}
			}
		}
	}
	JOINT RHipJoint
	{
		OFFSET 0 0 0
		CHANNELS 3 Zrotation Yrotation Xrotation
		JOINT RightUpLeg
		{
			OFFSET -1.54669 -1.61379 0.86856
			CHANNELS 3 Zrotation Yrotation Xrotation
			JOINT RightLeg
			{
				OFFSET -2.28132 -6.26789 0.00000
				CHANNELS 3 Zrotation Yrotation Xrotation
				JOINT RightFoot
				{
					OFFSET -2.51636 -6.91365 0.00000
					CHANNELS 3 Zrotation Yrotation Xrotation
					JOINT RightToeBase
					{
						OFFSET -0.15124 -0.41552 2.21090
						CHANNELS 3 Zrotation Yrotation Xrotation
						End Site
						{
							OFFSET -0.00000 -0.00000 1.13399
						}
					}
				}
			}
		}
	}
	JOINT LowerBack
	{
		OFFSET 0 0 0
		CHANNELS 3 Zrotation Yrotation Xrotation
		JOINT Spine
		{
			OFFSET -0.04287 2.26161 -0.25690
			CHANNELS 3 Zrotation Yrotation Xrotation
			JOINT Spine1
			{
				OFFSET 0.02248 2.28395 -0.10140
				CHANNELS 3 Zrotation Yrotation Xrotation
				JOINT Neck
				{
					OFFSET 0 0 0
					CHANNELS 3 Zrotation Yrotation Xrotation
					JOINT Neck1
					{
						OFFSET -0.11644 1.38496 0.11345
						CHANNELS 3 Zrotation Yrotation Xrotation
						JOINT Head
						{
							OFFSET 0.29383 1.36600 0.06642
							CHANNELS 3 Zrotation Yrotation Xrotation
							End Site
							{
								OFFSET 0.11075 1.41395 -0.00294
							}
						}
					}
				}
				JOINT LeftShoulder
				{
					OFFSET 0 0 0
					CHANNELS 3 Zrotation Yrotation Xrotation
					JOINT LeftArm
					{
						OFFSET 3.51628 0.59542 -0.30346
						CHANNELS 3 Zrotation Yrotation Xrotation
						JOINT LeftForeArm
						{
							OFFSET 4.76405 -0.00000 0.00000
							CHANNELS 3 Zrotation Yrotation Xrotation
							JOINT LeftHand
							{
								OFFSET 3.13759 -0.00000 -0.00000
								CHANNELS 3 Zrotation Yrotation Xrotation
								JOINT LeftFingerBase
								{
									OFFSET 0 0 0
									CHANNELS 3 Zrotation Yrotation Xrotation
									JOINT LeftHandIndex1
									{
										OFFSET 0.73226 -0.00000 -0.00000
										CHANNELS 3 Zrotation Yrotation Xrotation
										End Site
										{
											OFFSET 0.59037 -0.00000 -0.00000
										}
									}
								}
								JOINT LThumb
								{
									OFFSET 0 0 0
									CHANNELS 3 Zrotation Yrotation Xrotation
									End Site
									{
										OFFSET 0.59938 -0.00000 0.59938
									}
								}
							}
						}
					}
				}
				JOINT RightShoulder
				{
					OFFSET 0 0 0
					CHANNELS 3 Zrotation Yrotation Xrotation
					JOINT RightArm
					{
						OFFSET -3.30990 0.84213 -0.36430
						CHANNELS 3 Zrotation Yrotation Xrotation
						JOINT RightForeArm
						{
							OFFSET -5.10161 -0.00000 -0.00000
							CHANNELS 3 Zrotation Yrotation Xrotation
							JOINT RightHand
							{
								OFFSET -3.23267 -0.00000 -0.00000
								CHANNELS 3 Zrotation Yrotation Xrotation
								JOINT RightFingerBase
								{
									OFFSET 0 0 0
									CHANNELS 3 Zrotation Yrotation Xrotation
									JOINT RightHandIndex1
									{
										OFFSET -0.70200 -0.00000 -0.00000
										CHANNELS 3 Zrotation Yrotation Xrotation
										End Site
										{
											OFFSET -0.56597 -0.00000 -0.00000
										}
									}
								}
								JOINT RThumb
								{
									OFFSET 0 0 0
									CHANNELS 3 Zrotation Yrotation Xrotation
									End Site
									{
										OFFSET -0.57461 -0.00000 0.57461
									}
								}
							}
						}
					}
				}
			}
		}
	}
}
MOTION
Frames: 12
Frame Time: .0083333
-29.3258 14.0711 14.0895 0 0 0 0 0 0 -21 0 0 0 0 0 0 0 0 0 0 0 0 0 0 21 0 0 0 0 0 0 0 0 0 0 0 0 0 0 0 0 0 0 0 0 0 0 -16 0 0 21 0 0 11 0 0 0 -8 0 0 0 0 0 0 0 0 0 0 0 0 0 0 0 0 0 0 0 0 8 0 0 0 0 0 0 0 0 0 0 0 0 0 0 0 0 0
-29.3258 14.0711 14.0895 152.3120 74.4658 164.3580 0.0000 0.0000 0.0000 -26.7507 13.7723 28.0733 0.0000 -0.0000 -0.0000 0.5864 -2.2428 -13.8717 1.1298 -6.7510 -18.9797 0.0000 0.0000 0.0000 10.2548 3.6854 -60.4288 -21.1949 -19.9657 93.4956 -1.0645 3.3835 -18.6644 -0.0442 1.3564 -3.7300 -10.3042 -1.5396 10.5122 0.9873 -2.6044 6.0833 7.0801 -1.4791 1.0889 -7.9572 -0.0039 -7.8899 10.4462 1.1179 -5.7644 4.4746 0.8217 -0.4955 0.0000 -0.0000 0.0000 -96.8949 -16.6206 55.1168 44.5378 -50.5400 -21.8813 -0.0000 0.0000 -33.7342 20.9814 21.9892 8.1713 -7.1250 0.0000 -0.0000 -8.1821 53.1833 -1.6558 0.0000 -0.0000 0.0000 81.3041 14.5393 47.4861 -123.7578 55.2225 -88.7662 0.0000 0.0000 19.0125 -35.1774 31.8306 -20.3918 7.1250 -0.0000 -0.0000 -1.8863 7.2177 -2.1094
-29.1130 14.0521 14.0197 153.3300 74.6248 165.8090 0.0000 0.0000 0.0000 -26.2336 13.7107 28.2237 0.0000 -0.0000 -0.0000 0.4372 -2.6256 -11.8621 0.9074 -6.0703 -16.9885 0.0000 0.0000 0.0000 11.1514 3.2029 -60.0472 -20.8288 -19.9835 92.4238 -0.8771 2.2902 -17.0724 -0.2684 3.3324 -9.2056 -9.6264 -1.7205 10.7073 1.5922 -2.8008 6.1046 7.3667 -1.5703 1.0330 -8.0446 0.2477 -8.1087 9.7246 1.4209 -5.4426 4.2733 0.9741 -0.3977 0.0000 -0.0000 0.0000 -96.8483 -15.1956 54.3952 42.7270 -49.6051 -20.4926 -0.0000 0.0000 -32.5058 21.7848 21.5659 8.3572 -7.1250 0.0000 -0.0000 -7.2204 52.8933 -1.4082 0.0000 -0.0000 0.0000 80.0988 16.6099 49.1353 -120.7418 56.1090 -86.2754 0.0000 0.0000 20.7066 -35.4942 31.9492 -20.6750 7.1250 -0.0000 -0.0000 -2.0321 7.4504 -2.2797
-28.8961 14.0453 13.9519 154.2510 74.8205 167.2300 0.0000 0.0000 0.0000 -25.8199 13.7158 28.3185 0.0000 -0.0000 -0.0000 0.2870 -1.6792 -9.6721 0.9540 -6.2198 -17.4234 0.0000 0.0000 0.0000 11.9359 2.8200 -59.4022 -20.6131 -19.9910 91.7929 -0.8066 2.5763 -16.2923 -0.3261 3.6702 -10.1505 -8.8064 -1.7888 10.7779 2.0440 -2.8155 6.1652 7.3865 -1.5652 1.0321 -7.7462 0.3699 -8.1579 8.5767 1.5076 -5.3251 4.2603 1.0117 -0.4037 0.0000 0.0000 0.0000 -96.5649 -13.7503 54.0793 41.1606 -48.7427 -19.3072 -0.0000 0.0000 -31.2762 22.4915 21.2600 8.5381 -7.1250 0.0000 -0.0000 -6.4036 52.7043 -1.2181 0.0000 0.0000 0.0000 79.2104 18.5139 50.2247 -117.3765 56.9694 -83.4676 0.0000 0.0000 22.5829 -35.4906 32.2376 -20.8249 7.1250 -0.0000 -0.0000 -1.9612 7.7602 -2.2093
-28.6671 14.0512 13.8859 154.7560 75.1172 168.1660 0.0000 0.0000 0.0000 -25.4785 13.9575 28.6521 0.0000 0.0000 0.0000 0.1401 0.3677 -7.2134 1.3995 -7.4836 -21.1563 0.0000 0.0000 0.0000 12.5584 2.5223 -58.3341 -20.3365 -19.9973 90.9840 -0.8523 3.9576 -16.5613 -0.2073 2.9315 -8.0881 -8.1122 -1.7922 10.8425 2.4924 -2.7479 6.2665 7.4659 -1.5232 1.0719 -7.7386 0.5566 -8.2251 7.8892 1.7459 -5.3742 4.0162 1.1282 -0.4246 0.0000 0.0000 0.0000 -96.1782 -12.1302 54.8737 39.2649 -47.6283 -17.8943 -0.0000 0.0000 -27.7876 23.2519 20.8828 8.7078 -7.1250 0.0000 -0.0000 -5.5157 52.4475 -1.0136 0.0000 0.0000 0.0000 78.3735 20.3190 50.9645 -113.1354 57.8777 -79.8931 0.0000 0.0000 24.2743 -35.4783 32.8424 -21.1331 7.1250 -0.0000 -0.0000 -1.8082 8.4061 -2.0541
-28.4267 14.1006 13.8100 155.3990 75.1170 169.5040 0.0000 0.0000 0.0000 -25.5905 12.8137 25.8410 0.0844 1.8740 5.1575 0.1088 0.3840 -6.3818 1.4195 -7.5347 -21.3095 0.0000 0.0000 0.0000 12.1641 2.0786 -57.3856 -20.6701 -19.9892 91.9595 -0.9628 9.5378 -17.7571 -0.7758 -5.6238 15.6965 -7.1662 -1.9162 10.6996 2.8496 -2.8093 6.3130 7.3035 -1.5375 1.1680 -8.0066 0.8498 -8.2975 7.5085 2.1808 -5.6669 3.9413 1.3564 -0.5450 0.0000 0.0000 0.0000 -95.7632 -10.7466 55.2193 37.1148 -46.2645 -16.3229 -0.0000 0.0000 -25.2292 23.9788 20.6839 8.9284 -7.1250 0.0000 -0.0000 -4.7201 52.3701 -0.8578 0.0000 0.0000 0.0000 77.7980 22.0081 51.6091 -107.9189 58.7513 -75.4532 0.0000 0.0000 25.4736 -36.6698 33.4524 -22.3149 7.1250 -0.0000 -0.0000 -2.2986 9.4707 -2.6474
-28.2156 14.0448 13.7385 155.1500 75.5067 169.9950 0.0000 0.0000 0.0000 -26.0878 11.4453 21.0332 0.5901 4.9182 13.6754 0.1287 -1.3165 -6.4423 0.8507 -5.8824 -16.4437 0.0000 0.0000 0.0000 13.5661 1.7437 -56.4004 -19.8023 -19.9991 89.4219 -1.1596 -0.2516 -20.4551 -2.2234 9.3167 -26.7911 -6.2253 -1.6981 10.5075 2.9210 -2.4127 6.5166 6.7954 -1.3200 1.3637 -7.4279 0.7192 -9.0435 6.9484 1.9998 -5.5419 3.6348 1.2701 -0.3470 -0.0000 0.0000 0.0000 -94.9286 -9.7053 55.6919 35.0264 -44.8310 -14.8319 -0.0000 0.0000 -23.8763 24.6803 20.5770 9.1746 -7.1250 0.0000 -0.0000 -3.9770 52.3852 -0.7239 -0.0000 0.0000 0.0000 77.8136 23.9398 51.2954 -101.0481 59.5337 -69.5530 0.0000 0.0000 26.9560 -38.9234 35.1835 -24.9536 7.1250 -0.0000 -0.0000 -3.0250 12.1505 -3.5984
-27.9978 14.0346 13.6737 153.9010 75.5970 169.6980 0.0000 0.0000 0.0000 -26.8425 9.6503 16.9476 1.2776 7.1632 20.1999 0.0795 -1.4888 -5.0142 0.3869 -3.9943 -11.0606 0.0000 0.0000 0.0000 13.1250 1.8526 -55.3738 -19.5282 -19.9947 88.6204 -1.4690 1.9002 -22.3807 -1.7107 8.2356 -23.4319 -6.1511 -1.7339 10.4229 3.4487 -2.4459 6.4582 7.3190 -1.3446 1.3791 -7.7634 0.7043 -9.5007 6.2841 2.0148 -5.3146 3.4748 1.2835 -0.1934 -0.0000 -0.0000 0.0000 -95.2165 -8.3834 54.6138 33.1754 -43.4644 -13.5426 -0.0000 0.0000 -23.6407 25.3323 20.4040 9.3716 -7.1250 0.0000 -0.0000 -3.2662 52.3204 -0.5891 -0.0000 -0.0000 0.0000 77.1280 25.8985 51.5803 -92.8624 59.9690 -62.4787 0.0000 0.0000 28.2528 -40.5095 36.4207 -26.8962 7.1250 -0.0000 -0.0000 -3.4822 14.0895 -4.2319
-27.7741 14.0203 13.6033 152.5730 76.0961 169.2260 0.0000 0.0000 0.0000 -27.4372 8.3743 12.9429 2.2093 9.2890 26.7035 0.0411 -1.4234 -3.6017 0.2823 -3.4169 -9.4418 0.0000 0.0000 0.0000 12.8875 2.2364 -54.0872 -19.0530 -19.9785 87.2301 -1.7417 2.2653 -24.3436 -2.0299 8.9281 -25.5705 -5.8083 -1.5330 10.3169 3.7608 -2.1404 6.4907 7.4284 -1.1878 1.4153 -8.1306 0.8121 -9.8282 5.9104 2.2344 -5.5320 3.4238 1.4109 -0.2253 -0.0000 -0.0000 0.0000 -95.1834 -7.2283 54.0288 31.1010 -41.8186 -12.1371 -0.0000 0.0000 -22.7084 25.9640 20.2471 9.5656 -7.1250 0.0000 -0.0000 -2.5813 52.2686 -0.4621 -0.0000 -0.0000 0.0000 76.8356 27.3994 51.1062 -84.1384 59.8698 -54.9259 0.0000 0.0000 29.3589 -42.7729 38.2313 -29.7914 7.1250 -0.0000 -0.0000 -4.0470 16.9427 -5.0612
-27.5640 14.0345 13.5444 152.1780 76.1181 169.6630 0.0000 0.0000 0.0000 -27.6882 6.8031 9.3403 3.3497 11.2406 33.0958 0.0131 -1.0921 -2.0592 0.3872 -3.9957 -11.0647 0.0000 0.0000 0.0000 12.8853 2.1287 -52.8690 -18.6154 -19.9540 85.9487 -2.0318 1.8914 -26.4520 -2.5268 9.8865 -28.6099 -5.0218 -1.3655 10.5633 3.8293 -1.8473 6.5820 7.0305 -1.0088 1.2911 -8.3415 0.8312 -10.3618 5.8416 2.3814 -6.1460 3.4479 1.5206 -0.3466 0.0000 0.0000 0.0000 -94.5327 -6.3441 54.3542 28.8251 -39.8648 -10.6484 -0.0000 0.0000 -20.8078 26.6087 20.1632 9.7970 -7.1250 0.0000 -0.0000 -1.9011 52.2978 -0.3416 0.0000 0.0000 0.0000 77.1177 28.8497 49.7679 -75.1641 59.1518 -47.1883 0.0000 0.0000 30.4470 -44.4245 38.9219 -31.6233 7.1250 -0.0000 -0.0000 -4.6237 18.3972 -5.8619
-27.3502 14.0302 13.4781 152.3300 76.7449 170.1890 0.0000 0.0000 0.0000 -27.4845 6.1310 5.7316 4.7434 13.0889 39.7022 -0.0004 -0.3460 0.1293 0.3290 -3.6866 -10.1965 0.0000 0.0000 0.0000 13.1515 2.4926 -51.2651 -18.2117 -19.9231 84.7649 -2.2565 1.4191 -28.0439 -2.8508 10.4495 -30.4450 -3.9684 -0.9784 11.0677 3.8129 -1.2316 6.8488 6.3615 -0.6569 1.1608 -8.3149 0.6244 -10.7726 6.0624 2.2090 -6.8845 3.5170 1.4696 -0.5053 -0.0000 -0.0000 0.0000 -93.6357 -5.3843 55.0102 26.6818 -37.8740 -9.3031 -0.0000 0.0000 -18.9916 27.2864 20.1430 10.0728 -7.1250 0.0000 -0.0000 -1.2002 52.4030 -0.2187 -0.0000 -0.0000 0.0000 77.7197 30.2469 48.0001 -66.5095 57.8087 -39.8063 0.0000 0.0000 31.4623 -45.6730 39.1440 -32.8737 7.1250 -0.0000 -0.0000 -5.1519 19.2073 -6.5810
-27.1444 13.9980 13.4052 154.1430 77.8025 171.9810 0.0000 0.0000 0.0000 -27.1828 5.1700 2.3429 6.3528 14.7617 46.3817 0.0003 -0.2446 0.4884 0.5137 -4.5938 -12.7535 0.0000 0.0000 0.0000 13.8866 3.1774 -49.4282 -17.8291 -19.8866 83.6411 -2.4136 0.8113 -29.1984 -3.0752 10.8157 -31.6609 -2.7028 -0.5836 11.7655 4.0348 -0.5557 7.3303 5.8147 -0.2706 1.1724 -8.4462 0.2586 -11.0460 6.2657 1.8356 -7.7505 3.6040 1.3212 -0.7157 -0.0000 0.0000 0.0000 -93.1095 -4.6472 55.2788 24.8471 -36.0473 -8.1997 -0.0000 0.0000 -17.2195 27.9711 20.1746 10.3789 -7.1250 0.0000 -0.0000 -0.5002 52.5675 -0.0932 -0.0000 0.0000 0.0000 78.1079 32.0330 46.1131 -57.7897 55.6916 -32.5086 0.0000 0.0000 32.3977 -46.0881 39.6623 -33.5434 7.1250 -0.0000 -0.0000 -5.1641 19.9375 -6.6365
